<svg xmlns="http://www.w3.org/2000/svg" xmlns:xlink="http://www.w3.org/1999/xlink" width="500" zoomAndPan="magnify" viewBox="0 0 375 374.999991" height="500" preserveAspectRatio="xMidYMid meet" version="1.0"><defs><g/><clipPath id="0e0340d58f"><path d="M 26.152344 103.609375 L 176.152344 103.609375 L 176.152344 254.359375 L 26.152344 254.359375 Z M 26.152344 103.609375 " clip-rule="nonzero"/></clipPath></defs><g clip-path="url(#0e0340d58f)"><path fill="#38b6ff" d="M 176.285156 173.183594 C 176.289062 173.128906 176.277344 173.074219 176.261719 173.027344 C 176.257812 173.023438 176.261719 173.019531 176.257812 173.015625 L 161.292969 133.707031 C 161.289062 133.703125 161.285156 133.699219 161.28125 133.695312 C 161.257812 133.636719 161.222656 133.582031 161.171875 133.539062 L 128.257812 107.355469 C 128.203125 107.3125 128.140625 107.28125 128.074219 107.269531 C 128.066406 107.269531 128.0625 107.269531 128.058594 107.269531 L 101.191406 103.613281 C 101.140625 103.609375 101.082031 103.613281 101.03125 103.625 L 88.226562 107.265625 L 87.863281 107.265625 C 87.789062 107.265625 87.71875 107.285156 87.660156 107.320312 L 87.332031 107.519531 L 55.816406 116.476562 C 55.804688 116.480469 55.800781 116.488281 55.789062 116.492188 C 55.746094 116.507812 55.710938 116.53125 55.675781 116.558594 C 55.660156 116.570312 55.644531 116.582031 55.632812 116.59375 C 55.625 116.601562 55.617188 116.605469 55.613281 116.613281 L 28.011719 152.449219 C 28.003906 152.460938 28 152.472656 27.996094 152.484375 C 27.984375 152.5 27.972656 152.511719 27.964844 152.53125 C 27.960938 152.542969 27.960938 152.554688 27.957031 152.566406 C 27.949219 152.585938 27.945312 152.605469 27.941406 152.628906 C 27.9375 152.644531 27.933594 152.652344 27.933594 152.667969 L 26.195312 184.179688 C 26.191406 184.207031 26.195312 184.238281 26.199219 184.265625 L 28.742188 200.203125 C 28.746094 200.222656 28.757812 200.242188 28.761719 200.261719 C 28.765625 200.273438 28.765625 200.289062 28.773438 200.300781 C 28.773438 200.304688 28.777344 200.308594 28.777344 200.3125 C 28.78125 200.316406 28.78125 200.320312 28.78125 200.324219 L 41.632812 224.800781 C 41.652344 224.84375 41.683594 224.882812 41.71875 224.914062 L 56.789062 238.238281 C 56.816406 238.265625 56.839844 238.292969 56.871094 238.3125 L 74.296875 250.058594 C 74.347656 250.089844 74.402344 250.109375 74.457031 250.121094 L 101.800781 254.371094 L 101.804688 254.375 C 101.808594 254.375 101.808594 254.375 101.808594 254.375 C 101.828125 254.378906 101.847656 254.378906 101.871094 254.378906 C 101.898438 254.378906 101.925781 254.375 101.949219 254.371094 C 101.949219 254.371094 101.953125 254.371094 101.953125 254.371094 C 101.953125 254.371094 101.953125 254.371094 101.957031 254.367188 C 101.957031 254.367188 101.960938 254.367188 101.964844 254.367188 C 101.964844 254.367188 101.96875 254.367188 101.964844 254.367188 C 101.964844 254.367188 101.96875 254.367188 101.96875 254.367188 C 101.96875 254.367188 101.96875 254.363281 101.972656 254.363281 C 101.972656 254.367188 101.972656 254.363281 101.972656 254.363281 C 101.976562 254.363281 101.976562 254.363281 101.976562 254.363281 L 146.65625 241.304688 C 146.671875 241.296875 146.683594 241.28125 146.695312 241.273438 C 146.742188 241.257812 146.773438 241.230469 146.808594 241.199219 C 146.824219 241.183594 146.847656 241.179688 146.859375 241.164062 L 174.039062 205.3125 C 174.082031 205.253906 174.101562 205.1875 174.109375 205.121094 C 174.109375 205.113281 174.117188 205.109375 174.117188 205.101562 Z M 173.355469 204.761719 L 161.597656 207.734375 L 175.339844 175.453125 Z M 125.652344 200.1875 L 82.335938 184.945312 L 115.007812 161.414062 Z M 115.007812 160.144531 L 82.429688 138.832031 L 124.785156 126.710938 Z M 114.542969 160.78125 L 81.886719 184.296875 L 81.886719 139.417969 Z M 81.101562 184.433594 L 44.042969 166.242188 L 81.101562 139.460938 Z M 89.125 228.046875 L 53.800781 208.25 L 81.230469 185.792969 Z M 82.007812 185.664062 L 125.414062 200.941406 L 89.9375 228.101562 Z M 125.890625 201.566406 L 128.179688 234.046875 L 90.648438 228.546875 Z M 126.394531 199.917969 L 115.769531 161.210938 L 151.910156 164.824219 Z M 152.414062 165.46875 L 160.429688 207.800781 L 126.90625 200.554688 Z M 161.070312 206.964844 L 153.144531 165.113281 L 175.367188 173.382812 Z M 152.46875 163.59375 L 126.273438 126.734375 L 160.4375 134.144531 Z M 151.808594 164.023438 L 115.746094 160.417969 L 125.515625 127.023438 Z M 82.011719 138.132812 L 88.144531 108.238281 L 124.277344 126.039062 Z M 81.199219 138.175781 L 53.480469 128.90625 L 87.296875 108.460938 Z M 80.640625 138.820312 L 43.921875 165.355469 L 52.828125 129.519531 Z M 43.058594 165.570312 L 28.898438 152.679688 L 51.832031 130.261719 Z M 52.199219 128.804688 L 32.046875 148.496094 L 55.003906 118.695312 Z M 42.8125 166.410156 L 29.492188 198.253906 L 28.734375 153.59375 Z M 43.175781 167.582031 L 52.558594 207.710938 L 29.65625 199.902344 Z M 43.851562 167.027344 L 80.769531 185.148438 L 53.34375 207.605469 Z M 88.644531 228.679688 L 57.414062 237.480469 L 53.597656 209.039062 Z M 89.457031 229.269531 L 101.09375 253.289062 L 58.378906 238.023438 Z M 102.015625 253.386719 L 90.34375 229.300781 L 127.59375 234.757812 Z M 128.945312 233.722656 L 126.660156 201.304688 L 160.039062 208.519531 Z M 159.910156 209.640625 L 146.335938 240.429688 L 129.398438 234.371094 Z M 161.207031 208.644531 L 172.738281 205.730469 L 148.261719 238.015625 Z M 153.105469 164.257812 L 160.988281 135.121094 L 175.214844 172.484375 Z M 128.296875 108.394531 L 159.359375 133.105469 L 125.804688 125.828125 Z M 101.167969 104.40625 L 122.195312 107.265625 L 91.105469 107.265625 Z M 127.554688 108.050781 L 125.050781 125.542969 L 89.550781 108.050781 Z M 53.195312 128.160156 L 56.246094 117.175781 L 84.777344 109.0625 Z M 26.980469 184.183594 L 28.117188 163.605469 L 28.640625 194.589844 Z M 42.292969 224.371094 L 31.867188 204.507812 L 54.554688 235.214844 Z M 30.195312 200.917969 L 52.746094 208.605469 L 56.492188 236.515625 Z M 59.894531 239.402344 L 97.824219 252.957031 L 74.664062 249.355469 Z M 128.667969 234.945312 L 145.273438 240.886719 L 103.925781 252.972656 Z M 128.667969 234.945312 " fill-opacity="1" fill-rule="nonzero"/></g><g fill="#000000" fill-opacity="1"><g transform="translate(84.580667, 227.629255)"><g><path d="M 11.421875 -118.625 C 14.492188 -121.695312 18.160156 -123.234375 22.421875 -123.234375 C 26.679688 -123.234375 30.34375 -121.695312 33.40625 -118.625 C 36.476562 -115.5625 38.015625 -111.898438 38.015625 -107.640625 C 38.015625 -103.390625 36.476562 -99.726562 33.40625 -96.65625 C 30.34375 -93.59375 26.679688 -92.0625 22.421875 -92.0625 C 18.160156 -92.0625 14.492188 -93.59375 11.421875 -96.65625 C 8.359375 -99.726562 6.828125 -103.390625 6.828125 -107.640625 C 6.828125 -111.898438 8.359375 -115.5625 11.421875 -118.625 Z M 8.90625 -76.171875 L 8.90625 0 L 35.1875 0 L 35.1875 -76.171875 Z M 8.90625 -76.171875 "/></g></g></g><g fill="#000000" fill-opacity="1"><g transform="translate(115.462572, 227.629255)"><g><path d="M 8.90625 0 L 8.90625 -76.171875 L 35.1875 -76.171875 L 35.1875 -68.15625 L 35.484375 -68.15625 C 42.316406 -74.988281 49.59375 -78.40625 57.3125 -78.40625 C 61.070312 -78.40625 64.804688 -77.910156 68.515625 -76.921875 C 72.234375 -75.929688 75.800781 -74.394531 79.21875 -72.3125 C 82.632812 -70.226562 85.40625 -67.28125 87.53125 -63.46875 C 89.65625 -59.664062 90.71875 -55.238281 90.71875 -50.1875 L 90.71875 0 L 64.4375 0 L 64.4375 -43.0625 C 64.4375 -47.019531 63.175781 -50.484375 60.65625 -53.453125 C 58.132812 -56.421875 54.84375 -57.90625 50.78125 -57.90625 C 46.820312 -57.90625 43.234375 -56.367188 40.015625 -53.296875 C 36.796875 -50.234375 35.1875 -46.820312 35.1875 -43.0625 L 35.1875 0 Z M 8.90625 0 "/></g></g></g><g fill="#000000" fill-opacity="1"><g transform="translate(199.647549, 227.629255)"><g><path d="M 11.421875 -118.625 C 14.492188 -121.695312 18.160156 -123.234375 22.421875 -123.234375 C 26.679688 -123.234375 30.34375 -121.695312 33.40625 -118.625 C 36.476562 -115.5625 38.015625 -111.898438 38.015625 -107.640625 C 38.015625 -103.390625 36.476562 -99.726562 33.40625 -96.65625 C 30.34375 -93.59375 26.679688 -92.0625 22.421875 -92.0625 C 18.160156 -92.0625 14.492188 -93.59375 11.421875 -96.65625 C 8.359375 -99.726562 6.828125 -103.390625 6.828125 -107.640625 C 6.828125 -111.898438 8.359375 -115.5625 11.421875 -118.625 Z M 8.90625 -76.171875 L 8.90625 0 L 35.1875 0 L 35.1875 -76.171875 Z M 8.90625 -76.171875 "/></g></g></g><g fill="#000000" fill-opacity="1"><g transform="translate(230.529452, 227.629255)"><g><path d="M 13.359375 -76.171875 L 13.359375 -104.53125 L 39.640625 -104.53125 L 39.640625 -76.171875 L 55.6875 -76.171875 L 55.6875 -56.125 L 39.640625 -56.125 L 39.640625 -31.921875 C 39.640625 -24.890625 41.617188 -21.375 45.578125 -21.375 C 46.566406 -21.375 47.609375 -21.570312 48.703125 -21.96875 C 49.796875 -22.363281 50.640625 -22.757812 51.234375 -23.15625 L 52.125 -23.75 L 58.65625 -2.53125 C 53.007812 0.644531 46.570312 2.234375 39.34375 2.234375 C 34.394531 2.234375 30.140625 1.367188 26.578125 -0.359375 C 23.015625 -2.097656 20.316406 -4.425781 18.484375 -7.34375 C 16.648438 -10.269531 15.335938 -13.335938 14.546875 -16.546875 C 13.753906 -19.765625 13.359375 -23.207031 13.359375 -26.875 L 13.359375 -56.125 L 2.375 -56.125 L 2.375 -76.171875 Z M 13.359375 -76.171875 "/></g></g></g><g fill="#38b6ff" fill-opacity="1"><g transform="translate(275.221279, 227.629255)"><g><path d="M 25.84375 -31.78125 C 30.59375 -31.78125 34.625 -30.117188 37.9375 -26.796875 C 41.25 -23.484375 42.90625 -19.453125 42.90625 -14.703125 C 42.90625 -10.046875 41.25 -6.054688 37.9375 -2.734375 C 34.625 0.578125 30.59375 2.234375 25.84375 2.234375 C 21.1875 2.234375 17.195312 0.578125 13.875 -2.734375 C 10.5625 -6.054688 8.90625 -10.046875 8.90625 -14.703125 C 8.90625 -19.453125 10.5625 -23.484375 13.875 -26.796875 C 17.195312 -30.117188 21.1875 -31.78125 25.84375 -31.78125 Z M 25.84375 -31.78125 "/></g></g></g><g fill="#000000" fill-opacity="1"><g transform="translate(60.350988, 264.854279)"><g><path d="M 1.1875 -2.375 C 1.007812 -2.644531 0.921875 -2.90625 0.921875 -3.15625 C 0.921875 -3.539062 1.125 -3.867188 1.53125 -4.140625 C 1.726562 -4.273438 1.953125 -4.34375 2.203125 -4.34375 C 2.546875 -4.34375 2.863281 -4.195312 3.15625 -3.90625 C 3.738281 -3.25 4.363281 -2.753906 5.03125 -2.421875 C 5.695312 -2.097656 6.492188 -1.9375 7.421875 -1.9375 C 8.148438 -1.957031 8.796875 -2.125 9.359375 -2.4375 C 9.921875 -2.757812 10.203125 -3.28125 10.203125 -4 C 10.203125 -4.65625 9.914062 -5.15625 9.34375 -5.5 C 8.78125 -5.851562 7.945312 -6.175781 6.84375 -6.46875 C 5.757812 -6.75 4.859375 -7.050781 4.140625 -7.375 C 3.429688 -7.695312 2.828125 -8.160156 2.328125 -8.765625 C 1.835938 -9.378906 1.59375 -10.175781 1.59375 -11.15625 C 1.59375 -12.03125 1.835938 -12.796875 2.328125 -13.453125 C 2.828125 -14.109375 3.484375 -14.617188 4.296875 -14.984375 C 5.117188 -15.347656 6.015625 -15.53125 6.984375 -15.53125 C 7.910156 -15.53125 8.832031 -15.351562 9.75 -15 C 10.664062 -14.65625 11.414062 -14.128906 12 -13.421875 C 12.226562 -13.148438 12.34375 -12.867188 12.34375 -12.578125 C 12.34375 -12.265625 12.191406 -11.96875 11.890625 -11.6875 C 11.691406 -11.507812 11.445312 -11.421875 11.15625 -11.421875 C 10.8125 -11.421875 10.53125 -11.535156 10.3125 -11.765625 C 9.90625 -12.234375 9.40625 -12.59375 8.8125 -12.84375 C 8.226562 -13.09375 7.582031 -13.21875 6.875 -13.21875 C 6.132812 -13.21875 5.507812 -13.066406 5 -12.765625 C 4.488281 -12.460938 4.234375 -11.957031 4.234375 -11.25 C 4.253906 -10.570312 4.546875 -10.066406 5.109375 -9.734375 C 5.679688 -9.410156 6.554688 -9.09375 7.734375 -8.78125 C 8.765625 -8.507812 9.613281 -8.21875 10.28125 -7.90625 C 10.957031 -7.601562 11.523438 -7.144531 11.984375 -6.53125 C 12.453125 -5.925781 12.6875 -5.128906 12.6875 -4.140625 C 12.6875 -3.234375 12.425781 -2.445312 11.90625 -1.78125 C 11.382812 -1.113281 10.703125 -0.597656 9.859375 -0.234375 C 9.023438 0.117188 8.132812 0.296875 7.1875 0.296875 C 5.96875 0.296875 4.84375 0.0820312 3.8125 -0.34375 C 2.78125 -0.769531 1.90625 -1.445312 1.1875 -2.375 Z M 1.1875 -2.375 "/></g></g></g><g fill="#000000" fill-opacity="1"><g transform="translate(93.078611, 264.854279)"><g><path d="M 16.4375 -7.59375 C 16.4375 -6.082031 16.097656 -4.726562 15.421875 -3.53125 C 14.742188 -2.332031 13.816406 -1.394531 12.640625 -0.71875 C 11.472656 -0.0390625 10.1875 0.296875 8.78125 0.296875 C 7.375 0.296875 6.082031 -0.0390625 4.90625 -0.71875 C 3.738281 -1.394531 2.816406 -2.332031 2.140625 -3.53125 C 1.460938 -4.726562 1.125 -6.082031 1.125 -7.59375 C 1.125 -9.101562 1.460938 -10.460938 2.140625 -11.671875 C 2.816406 -12.890625 3.738281 -13.835938 4.90625 -14.515625 C 6.082031 -15.191406 7.375 -15.53125 8.78125 -15.53125 C 10.1875 -15.53125 11.472656 -15.191406 12.640625 -14.515625 C 13.816406 -13.835938 14.742188 -12.890625 15.421875 -11.671875 C 16.097656 -10.460938 16.4375 -9.101562 16.4375 -7.59375 Z M 13.6875 -7.59375 C 13.6875 -8.632812 13.46875 -9.566406 13.03125 -10.390625 C 12.59375 -11.210938 12 -11.847656 11.25 -12.296875 C 10.507812 -12.753906 9.6875 -12.984375 8.78125 -12.984375 C 7.875 -12.984375 7.046875 -12.753906 6.296875 -12.296875 C 5.554688 -11.847656 4.96875 -11.210938 4.53125 -10.390625 C 4.101562 -9.566406 3.890625 -8.632812 3.890625 -7.59375 C 3.890625 -6.570312 4.101562 -5.65625 4.53125 -4.84375 C 4.96875 -4.03125 5.554688 -3.394531 6.296875 -2.9375 C 7.046875 -2.488281 7.875 -2.265625 8.78125 -2.265625 C 9.6875 -2.265625 10.507812 -2.488281 11.25 -2.9375 C 12 -3.394531 12.59375 -4.03125 13.03125 -4.84375 C 13.46875 -5.65625 13.6875 -6.570312 13.6875 -7.59375 Z M 13.6875 -7.59375 "/></g></g></g><g fill="#000000" fill-opacity="1"><g transform="translate(129.544732, 264.854279)"><g><path d="M 5.046875 -1.390625 C 5.046875 -1.003906 4.910156 -0.675781 4.640625 -0.40625 C 4.367188 -0.132812 4.039062 0 3.65625 0 C 3.269531 0 2.945312 -0.132812 2.6875 -0.40625 C 2.425781 -0.675781 2.296875 -1.003906 2.296875 -1.390625 L 2.296875 -20.0625 C 2.296875 -20.445312 2.425781 -20.773438 2.6875 -21.046875 C 2.957031 -21.316406 3.289062 -21.453125 3.6875 -21.453125 C 4.070312 -21.453125 4.394531 -21.316406 4.65625 -21.046875 C 4.914062 -20.773438 5.046875 -20.445312 5.046875 -20.0625 Z M 5.046875 -1.390625 "/></g></g></g><g fill="#000000" fill-opacity="1"><g transform="translate(155.780717, 264.854279)"><g><path d="M 13.359375 -15.1875 C 13.765625 -15.1875 14.097656 -15.050781 14.359375 -14.78125 C 14.617188 -14.507812 14.75 -14.179688 14.75 -13.796875 L 14.75 -6.09375 C 14.75 -4.082031 14.191406 -2.519531 13.078125 -1.40625 C 11.972656 -0.289062 10.40625 0.265625 8.375 0.265625 C 6.363281 0.265625 4.804688 -0.289062 3.703125 -1.40625 C 2.609375 -2.519531 2.0625 -4.082031 2.0625 -6.09375 L 2.0625 -13.796875 C 2.0625 -14.179688 2.191406 -14.507812 2.453125 -14.78125 C 2.710938 -15.050781 3.035156 -15.1875 3.421875 -15.1875 C 3.828125 -15.1875 4.160156 -15.050781 4.421875 -14.78125 C 4.679688 -14.507812 4.8125 -14.179688 4.8125 -13.796875 L 4.8125 -6.09375 C 4.8125 -3.5625 6 -2.296875 8.375 -2.296875 C 9.550781 -2.296875 10.445312 -2.613281 11.0625 -3.25 C 11.6875 -3.882812 12 -4.832031 12 -6.09375 L 12 -13.796875 C 12 -14.179688 12.128906 -14.507812 12.390625 -14.78125 C 12.648438 -15.050781 12.972656 -15.1875 13.359375 -15.1875 Z M 13.359375 -15.1875 "/></g></g></g><g fill="#000000" fill-opacity="1"><g transform="translate(191.493337, 264.854279)"><g><path d="M 6.171875 -12.5 L 6.171875 -3.859375 C 6.171875 -2.890625 6.609375 -2.40625 7.484375 -2.40625 C 7.617188 -2.40625 7.800781 -2.4375 8.03125 -2.5 C 8.257812 -2.570312 8.441406 -2.609375 8.578125 -2.609375 C 8.828125 -2.609375 9.039062 -2.5 9.21875 -2.28125 C 9.394531 -2.070312 9.484375 -1.804688 9.484375 -1.484375 C 9.484375 -1.078125 9.25 -0.726562 8.78125 -0.4375 C 8.320312 -0.144531 7.800781 0 7.21875 0 C 6.582031 0 6 -0.0664062 5.46875 -0.203125 C 4.9375 -0.335938 4.460938 -0.679688 4.046875 -1.234375 C 3.628906 -1.785156 3.421875 -2.617188 3.421875 -3.734375 L 3.421875 -12.5 L 1.734375 -12.5 C 1.367188 -12.5 1.066406 -12.617188 0.828125 -12.859375 C 0.585938 -13.097656 0.46875 -13.398438 0.46875 -13.765625 C 0.46875 -14.128906 0.585938 -14.425781 0.828125 -14.65625 C 1.066406 -14.894531 1.367188 -15.015625 1.734375 -15.015625 L 3.421875 -15.015625 L 3.421875 -17.453125 C 3.421875 -17.835938 3.550781 -18.164062 3.8125 -18.4375 C 4.070312 -18.707031 4.40625 -18.84375 4.8125 -18.84375 C 5.195312 -18.84375 5.519531 -18.707031 5.78125 -18.4375 C 6.039062 -18.164062 6.171875 -17.835938 6.171875 -17.453125 L 6.171875 -15.015625 L 8.578125 -15.015625 C 8.941406 -15.015625 9.242188 -14.894531 9.484375 -14.65625 C 9.734375 -14.414062 9.859375 -14.109375 9.859375 -13.734375 C 9.859375 -13.367188 9.734375 -13.070312 9.484375 -12.84375 C 9.242188 -12.613281 8.941406 -12.5 8.578125 -12.5 Z M 6.171875 -12.5 "/></g></g></g><g fill="#000000" fill-opacity="1"><g transform="translate(221.409861, 264.854279)"><g><path d="M 4.671875 -1.390625 C 4.671875 -1.003906 4.539062 -0.675781 4.28125 -0.40625 C 4.019531 -0.132812 3.6875 0 3.28125 0 C 2.894531 0 2.566406 -0.132812 2.296875 -0.40625 C 2.035156 -0.675781 1.90625 -1.003906 1.90625 -1.390625 L 1.90625 -13.9375 C 1.90625 -14.320312 2.035156 -14.648438 2.296875 -14.921875 C 2.566406 -15.191406 2.894531 -15.328125 3.28125 -15.328125 C 3.6875 -15.328125 4.019531 -15.191406 4.28125 -14.921875 C 4.539062 -14.648438 4.671875 -14.320312 4.671875 -13.9375 Z M 3.28125 -17.25 C 2.71875 -17.25 2.316406 -17.347656 2.078125 -17.546875 C 1.835938 -17.753906 1.71875 -18.078125 1.71875 -18.515625 L 1.71875 -18.984375 C 1.71875 -19.453125 1.847656 -19.78125 2.109375 -19.96875 C 2.367188 -20.164062 2.769531 -20.265625 3.3125 -20.265625 C 3.851562 -20.265625 4.242188 -20.160156 4.484375 -19.953125 C 4.722656 -19.753906 4.84375 -19.429688 4.84375 -18.984375 L 4.84375 -18.515625 C 4.84375 -18.054688 4.71875 -17.726562 4.46875 -17.53125 C 4.21875 -17.34375 3.820312 -17.25 3.28125 -17.25 Z M 3.28125 -17.25 "/></g></g></g><g fill="#000000" fill-opacity="1"><g transform="translate(246.89235, 264.854279)"><g><path d="M 16.4375 -7.59375 C 16.4375 -6.082031 16.097656 -4.726562 15.421875 -3.53125 C 14.742188 -2.332031 13.816406 -1.394531 12.640625 -0.71875 C 11.472656 -0.0390625 10.1875 0.296875 8.78125 0.296875 C 7.375 0.296875 6.082031 -0.0390625 4.90625 -0.71875 C 3.738281 -1.394531 2.816406 -2.332031 2.140625 -3.53125 C 1.460938 -4.726562 1.125 -6.082031 1.125 -7.59375 C 1.125 -9.101562 1.460938 -10.460938 2.140625 -11.671875 C 2.816406 -12.890625 3.738281 -13.835938 4.90625 -14.515625 C 6.082031 -15.191406 7.375 -15.53125 8.78125 -15.53125 C 10.1875 -15.53125 11.472656 -15.191406 12.640625 -14.515625 C 13.816406 -13.835938 14.742188 -12.890625 15.421875 -11.671875 C 16.097656 -10.460938 16.4375 -9.101562 16.4375 -7.59375 Z M 13.6875 -7.59375 C 13.6875 -8.632812 13.46875 -9.566406 13.03125 -10.390625 C 12.59375 -11.210938 12 -11.847656 11.25 -12.296875 C 10.507812 -12.753906 9.6875 -12.984375 8.78125 -12.984375 C 7.875 -12.984375 7.046875 -12.753906 6.296875 -12.296875 C 5.554688 -11.847656 4.96875 -11.210938 4.53125 -10.390625 C 4.101562 -9.566406 3.890625 -8.632812 3.890625 -7.59375 C 3.890625 -6.570312 4.101562 -5.65625 4.53125 -4.84375 C 4.96875 -4.03125 5.554688 -3.394531 6.296875 -2.9375 C 7.046875 -2.488281 7.875 -2.265625 8.78125 -2.265625 C 9.6875 -2.265625 10.507812 -2.488281 11.25 -2.9375 C 12 -3.394531 12.59375 -4.03125 13.03125 -4.84375 C 13.46875 -5.65625 13.6875 -6.570312 13.6875 -7.59375 Z M 13.6875 -7.59375 "/></g></g></g><g fill="#000000" fill-opacity="1"><g transform="translate(283.358465, 264.854279)"><g><path d="M 9.796875 -15.53125 C 13.273438 -15.53125 15.015625 -13.445312 15.015625 -9.28125 L 15.015625 -1.390625 C 15.015625 -1.003906 14.882812 -0.675781 14.625 -0.40625 C 14.363281 -0.132812 14.03125 0 13.625 0 C 13.238281 0 12.914062 -0.132812 12.65625 -0.40625 C 12.394531 -0.675781 12.265625 -1.003906 12.265625 -1.390625 L 12.265625 -9.25 C 12.265625 -10.382812 12 -11.289062 11.46875 -11.96875 C 10.945312 -12.644531 10.097656 -12.984375 8.921875 -12.984375 C 8.148438 -12.984375 7.453125 -12.8125 6.828125 -12.46875 C 6.203125 -12.132812 5.707031 -11.679688 5.34375 -11.109375 C 4.988281 -10.546875 4.8125 -9.925781 4.8125 -9.25 L 4.8125 -1.390625 C 4.8125 -1.003906 4.679688 -0.675781 4.421875 -0.40625 C 4.160156 -0.132812 3.828125 0 3.421875 0 C 3.015625 0 2.6875 -0.128906 2.4375 -0.390625 C 2.1875 -0.648438 2.0625 -0.984375 2.0625 -1.390625 L 2.0625 -13.796875 C 2.0625 -14.179688 2.191406 -14.507812 2.453125 -14.78125 C 2.710938 -15.050781 3.035156 -15.1875 3.421875 -15.1875 C 3.828125 -15.1875 4.160156 -15.050781 4.421875 -14.78125 C 4.679688 -14.507812 4.8125 -14.179688 4.8125 -13.796875 L 4.8125 -12.78125 C 5.3125 -13.550781 6.007812 -14.203125 6.90625 -14.734375 C 7.8125 -15.265625 8.773438 -15.53125 9.796875 -15.53125 Z M 9.796875 -15.53125 "/></g></g></g><g fill="#000000" fill-opacity="1"><g transform="translate(319.331913, 264.854279)"><g><path d="M 1.1875 -2.375 C 1.007812 -2.644531 0.921875 -2.90625 0.921875 -3.15625 C 0.921875 -3.539062 1.125 -3.867188 1.53125 -4.140625 C 1.726562 -4.273438 1.953125 -4.34375 2.203125 -4.34375 C 2.546875 -4.34375 2.863281 -4.195312 3.15625 -3.90625 C 3.738281 -3.25 4.363281 -2.753906 5.03125 -2.421875 C 5.695312 -2.097656 6.492188 -1.9375 7.421875 -1.9375 C 8.148438 -1.957031 8.796875 -2.125 9.359375 -2.4375 C 9.921875 -2.757812 10.203125 -3.28125 10.203125 -4 C 10.203125 -4.65625 9.914062 -5.15625 9.34375 -5.5 C 8.78125 -5.851562 7.945312 -6.175781 6.84375 -6.46875 C 5.757812 -6.75 4.859375 -7.050781 4.140625 -7.375 C 3.429688 -7.695312 2.828125 -8.160156 2.328125 -8.765625 C 1.835938 -9.378906 1.59375 -10.175781 1.59375 -11.15625 C 1.59375 -12.03125 1.835938 -12.796875 2.328125 -13.453125 C 2.828125 -14.109375 3.484375 -14.617188 4.296875 -14.984375 C 5.117188 -15.347656 6.015625 -15.53125 6.984375 -15.53125 C 7.910156 -15.53125 8.832031 -15.351562 9.75 -15 C 10.664062 -14.65625 11.414062 -14.128906 12 -13.421875 C 12.226562 -13.148438 12.34375 -12.867188 12.34375 -12.578125 C 12.34375 -12.265625 12.191406 -11.96875 11.890625 -11.6875 C 11.691406 -11.507812 11.445312 -11.421875 11.15625 -11.421875 C 10.8125 -11.421875 10.53125 -11.535156 10.3125 -11.765625 C 9.90625 -12.234375 9.40625 -12.59375 8.8125 -12.84375 C 8.226562 -13.09375 7.582031 -13.21875 6.875 -13.21875 C 6.132812 -13.21875 5.507812 -13.066406 5 -12.765625 C 4.488281 -12.460938 4.234375 -11.957031 4.234375 -11.25 C 4.253906 -10.570312 4.546875 -10.066406 5.109375 -9.734375 C 5.679688 -9.410156 6.554688 -9.09375 7.734375 -8.78125 C 8.765625 -8.507812 9.613281 -8.21875 10.28125 -7.90625 C 10.957031 -7.601562 11.523438 -7.144531 11.984375 -6.53125 C 12.453125 -5.925781 12.6875 -5.128906 12.6875 -4.140625 C 12.6875 -3.234375 12.425781 -2.445312 11.90625 -1.78125 C 11.382812 -1.113281 10.703125 -0.597656 9.859375 -0.234375 C 9.023438 0.117188 8.132812 0.296875 7.1875 0.296875 C 5.96875 0.296875 4.84375 0.0820312 3.8125 -0.34375 C 2.78125 -0.769531 1.90625 -1.445312 1.1875 -2.375 Z M 1.1875 -2.375 "/></g></g></g></svg>